# xmcd
#
# Track frame offsets: 
#        150
#        27050
#        50122
#        79000
#        103395
#        133475
#        155300
#        175980
#        199017
#        223370
#
# Disc length: 3374 seconds
#
# Revision: 1
# Processed by: cddbd v1.5.2PL0 Copyright (c) Steve Scherf et al.
# Submitted via: ExactAudioCopyFreeDBPlugin 1.0
#
DISCID=950d2c0a
DTITLE=Ha Phuong - Thuong Nho Nguoi Dung
DYEAR=2012
DGENRE=Country
TTITLE0=Thuong Nho Nguoi Dung
TTITLE1=Tinh Dang Ly Kho Qua
TTITLE2=Noi Buon Chim Sao
TTITLE3=Phuong Troi Xu La
TTITLE4=Chuyen Mot Loai Hoa
TTITLE5=Doan Buon Dem Mua
TTITLE6=Quen Cay Cau Dua
TTITLE7=Chieu Nuoc Lu
TTITLE8=Lam Dau Xu La
TTITLE9=May Chieu
EXTD=
EXTT0=
EXTT1=
EXTT2=
EXTT3=
EXTT4=
EXTT5=
EXTT6=
EXTT7=
EXTT8=
EXTT9=
PLAYORDER=
